<?xml version="1.0" encoding="UTF-8"?>
<svg width="38px" height="20px" viewBox="0 0 38 20" version="1.1" xmlns="http://www.w3.org/2000/svg" xmlns:xlink="http://www.w3.org/1999/xlink">
    <!-- Generator: Sketch 41 (35326) - http://www.bohemiancoding.com/sketch -->
    <title>Shape</title>
    <desc>Created with Sketch.</desc>
    <defs></defs>
    <g id="Desktop" stroke="none" stroke-width="1" fill="none" fill-rule="evenodd">
        <g id="volta-shop" transform="translate(-1342.000000, -169.000000)" fill="#000000">
            <g id="FILTER" transform="translate(0.000000, 120.000000)">
                <g id="CHANGE-GRID" transform="translate(1280.000000, 40.000000)">
                    <g id="ICON---4-Columns" transform="translate(61.000000, 0.000000)">
                        <path d="M31,29 L39,29 L39,20 L31,20 L31,29 L31,29 Z M21,29 L29,29 L29,20 L21,20 L21,29 L21,29 Z M11,29 L19,29 L19,20 L11,20 L11,29 L11,29 Z M1,29 L9,29 L9,20 L1,20 L1,29 L1,29 Z M31,9 L31,18 L39,18 L39,9 L31,9 L31,9 Z M21,9 L21,18 L29,18 L29,9 L21,9 L21,9 Z M11,18 L19,18 L19,9 L11,9 L11,18 L11,18 Z M1,18 L9,18 L9,9 L1,9 L1,18 L1,18 Z" id="Shape"></path>
                    </g>
                </g>
            </g>
        </g>
    </g>
</svg>